<svg width="39" height="39" viewBox="0 0 39 39" fill="none" xmlns="http://www.w3.org/2000/svg">
<path fill-rule="evenodd" clip-rule="evenodd" d="M26.9314 24.5307L32.1444 29.7437C34.1089 27.3435 35.4035 24.3753 35.734 21.1252H39.0003C38.1586 31.118 29.7801 38.9668 19.5698 38.9668C8.80095 38.9668 0.0698242 30.2357 0.0698242 19.4668C0.0698242 9.24505 7.9363 0.859247 17.9451 0.033531V14.0157C15.598 14.7164 13.8823 16.8949 13.8823 19.4668C13.8823 22.603 16.4336 25.1543 19.5698 25.1543C22.1281 25.1543 24.2989 23.455 25.0107 21.1252H28.3471C28.1123 22.3703 27.6241 23.5255 26.9314 24.5307ZM12.2089 24.5307C11.5102 23.5167 11.0178 22.3499 10.787 21.0922H3.40305C3.72805 24.3552 5.0248 27.3354 6.99592 29.7437L12.2089 24.5307ZM10.787 17.8418C11.0178 16.584 11.5102 15.4173 12.2089 14.4033L6.99592 9.1903C5.0248 11.5969 3.72805 14.5788 3.40305 17.8418H10.787ZM14.5063 12.1059C15.5203 11.4071 16.6855 10.9148 17.9448 10.6856V3.30002C14.6818 3.62502 11.6999 4.92177 9.29333 6.8929L14.5063 12.1059ZM24.6337 26.8284C23.6181 27.5272 22.4529 28.0179 21.1952 28.2503V35.6343C24.4582 35.3093 27.4384 34.0142 29.8467 32.0414L24.6337 26.8284ZM17.9448 28.2503C16.6855 28.0179 15.5203 27.5272 14.5063 26.8284L9.29333 32.0414C11.6999 34.0142 14.6818 35.3093 17.9448 35.6343V28.2503Z" fill="#F94888"/>
<path fill-rule="evenodd" clip-rule="evenodd" d="M29.25 0H32.5V6.5L39 6.5V9.75H32.5V16.25H29.25V9.75H22.75V6.5L29.25 6.5V0Z" fill="#F94888"/>
</svg>
