<svg width="40" height="33" viewBox="0 0 40 33" fill="none" xmlns="http://www.w3.org/2000/svg">
<path fill-rule="evenodd" clip-rule="evenodd" d="M0.172852 3.5C0.172852 1.70508 1.62793 0.25 3.42285 0.25H9.92285H29.4229H35.9229C37.7178 0.25 39.1729 1.70507 39.1729 3.5V29.5C39.1729 31.2949 37.7178 32.75 35.9229 32.75H29.4229H9.92285H3.42285C1.62793 32.75 0.172852 31.2949 0.172852 29.5V3.5ZM3.42285 29.5H8.29785V23H3.42285V29.5ZM27.7978 29.5H11.5479L11.5479 3.5H27.7979L27.7978 29.5ZM31.0478 29.5H35.9229V23H31.0478V29.5ZM31.0478 19.75H35.9229V13.25H31.0479L31.0478 19.75ZM31.0479 10H35.9229V3.5H31.0479V10ZM3.42285 3.5L8.29785 3.5V10H3.42285V3.5ZM3.42285 13.25H8.29785L8.29785 19.75H3.42285V13.25Z" fill="#725010"/>
</svg>
