<svg width="41" height="40" viewBox="0 0 41 40" fill="none" xmlns="http://www.w3.org/2000/svg">
<path fill-rule="evenodd" clip-rule="evenodd" d="M6.5 3.25C4.70507 3.25 3.25 4.70508 3.25 6.5V32.5C3.25 34.2949 4.70508 35.75 6.5 35.75H32.5C34.2949 35.75 35.75 34.2949 35.75 32.5V6.5C35.75 4.70507 34.2949 3.25 32.5 3.25H6.5ZM6.5 6.5L32.5 6.5V32.5H6.5V6.5ZM22.75 19.5C22.75 21.2949 21.2949 22.75 19.5 22.75C17.7051 22.75 16.25 21.2949 16.25 19.5C16.25 17.7051 17.7051 16.25 19.5 16.25C21.2949 16.25 22.75 17.7051 22.75 19.5ZM26 19.5C26 23.0899 23.0899 26 19.5 26C15.9101 26 13 23.0899 13 19.5C13 15.9101 15.9101 13 19.5 13C23.0899 13 26 15.9101 26 19.5Z" fill="#F1A900"/>
</svg>
