<svg width="24" height="24" viewBox="0 0 24 24" fill="none" xmlns="http://www.w3.org/2000/svg">
<path fill-rule="evenodd" clip-rule="evenodd" d="M13 6H11V0H13V6ZM16.9492 8.4644L15.5352 7.0504L19.7782 2.8074L21.1922 4.2214L16.9492 8.4644ZM12 8C9.791 8 8 9.791 8 12C8 14.209 9.791 16 12 16C14.209 16 16 14.209 16 12C16 9.791 14.209 8 12 8ZM12 10C13.103 10 14 10.897 14 12C14 13.103 13.103 14 12 14C10.897 14 10 13.103 10 12C10 10.897 10.897 10 12 10ZM24 13H18V11H24V13ZM19.7783 21.1924L15.5353 16.9494L16.9493 15.5354L21.1923 19.7784L19.7783 21.1924ZM13 18V24H11V18H13ZM4.2217 21.1924L2.8077 19.7784L7.0507 15.5354L8.4647 16.9494L4.2217 21.1924ZM6 13H0V11H6V13ZM7.0503 8.4644L2.8073 4.2214L4.2213 2.8074L8.4643 7.0504L7.0503 8.4644Z" fill="white"/>
</svg>
