<svg width="24" height="24" viewBox="0 0 24 24" fill="none" xmlns="http://www.w3.org/2000/svg">
<path fill-rule="evenodd" clip-rule="evenodd" d="M12 0C5.373 0 0 5.373 0 12C0 18.627 5.373 24 12 24C18.627 24 24 18.627 24 12C24 5.373 18.627 0 12 0ZM12 2C17.514 2 22 6.486 22 12C22 17.514 17.514 22 12 22C6.486 22 2 17.514 2 12C2 6.486 6.486 2 12 2ZM12.249 4.9229C12.249 5.6129 11.689 6.1729 10.999 6.1729C10.309 6.1729 9.749 5.6129 9.749 4.9229C9.749 4.2329 10.309 3.6729 10.999 3.6729C11.689 3.6729 12.249 4.2329 12.249 4.9229ZM9.5005 10.25C10.1905 10.25 10.7505 9.69 10.7505 9C10.7505 8.31 10.1905 7.75 9.5005 7.75C8.8105 7.75 8.2505 8.31 8.2505 9C8.2505 9.69 8.8105 10.25 9.5005 10.25ZM17.1006 7.6411C17.1006 8.3311 16.5406 8.8911 15.8506 8.8911C15.1606 8.8911 14.6006 8.3311 14.6006 7.6411C14.6006 6.9511 15.1606 6.3911 15.8506 6.3911C16.5406 6.3911 17.1006 6.9511 17.1006 7.6411ZM15.2881 12.9487C15.9781 12.9487 16.5381 12.3887 16.5381 11.6987C16.5381 11.0087 15.9781 10.4487 15.2881 10.4487C14.5981 10.4487 14.0381 11.0087 14.0381 11.6987C14.0381 12.3887 14.5981 12.9487 15.2881 12.9487ZM20.5 13.25C20.5 13.94 19.94 14.5 19.25 14.5C18.56 14.5 18 13.94 18 13.25C18 12.56 18.56 12 19.25 12C19.94 12 20.5 12.56 20.5 13.25ZM16.3887 18.4248C17.0787 18.4248 17.6387 17.8648 17.6387 17.1748C17.6387 16.4848 17.0787 15.9248 16.3887 15.9248C15.6987 15.9248 15.1387 16.4848 15.1387 17.1748C15.1387 17.8648 15.6987 18.4248 16.3887 18.4248ZM12.7637 15.002C12.7637 15.691 12.2037 16.252 11.5137 16.252C10.8237 16.252 10.2637 15.691 10.2637 15.002C10.2637 14.312 10.8237 13.752 11.5137 13.752C12.2037 13.752 12.7637 14.312 12.7637 15.002ZM5.8828 16.252C6.5728 16.252 7.1328 15.691 7.1328 15.002C7.1328 14.312 6.5728 13.752 5.8828 13.752C5.1928 13.752 4.6328 14.312 4.6328 15.002C4.6328 15.691 5.1928 16.252 5.8828 16.252ZM10.999 18.6084C10.999 19.2984 10.439 19.8584 9.749 19.8584C9.059 19.8584 8.499 19.2984 8.499 18.6084C8.499 17.9184 9.059 17.3584 9.749 17.3584C10.439 17.3584 10.999 17.9184 10.999 18.6084ZM6 11.6987C6.69 11.6987 7.25 11.1387 7.25 10.4487C7.25 9.7587 6.69 9.1987 6 9.1987C5.31 9.1987 4.75 9.7587 4.75 10.4487C4.75 11.1387 5.31 11.6987 6 11.6987Z" fill="white"/>
</svg>
