<svg width="41" height="40" viewBox="0 0 41 40" fill="none" xmlns="http://www.w3.org/2000/svg">
<path fill-rule="evenodd" clip-rule="evenodd" d="M26.9319 24.5307L32.1449 29.7437C34.1094 27.3435 35.404 24.3753 35.7345 21.1252H39.0008C38.1591 31.118 29.7806 38.9668 19.5703 38.9668C8.80144 38.9668 0.0703125 30.2357 0.0703125 19.4668C0.0703125 9.24505 7.93679 0.859245 17.9456 0.0335312V14.0157C15.5985 14.7164 13.8828 16.8949 13.8828 19.4668C13.8828 22.603 16.4341 25.1543 19.5703 25.1543C22.1286 25.1543 24.2994 23.455 25.0112 21.1252H28.3476C28.1128 22.3703 27.6246 23.5255 26.9319 24.5307ZM12.2094 24.5307C11.5107 23.5167 11.0183 22.3499 10.7875 21.0922H3.40354C3.72854 24.3552 5.02529 27.3354 6.99641 29.7437L12.2094 24.5307ZM10.7875 17.8418C11.0183 16.584 11.5107 15.4173 12.2094 14.4033L6.99641 9.1903C5.02529 11.5969 3.72854 14.5788 3.40354 17.8418H10.7875ZM14.5068 12.1059C15.5208 11.4071 16.6859 10.9148 17.9453 10.6856V3.30002C14.6823 3.62502 11.7004 4.92177 9.29381 6.89289L14.5068 12.1059ZM24.6342 26.8284C23.6185 27.5272 22.4534 28.0179 21.1957 28.2503V35.6343C24.4587 35.3093 27.4389 34.0142 29.8472 32.0414L24.6342 26.8284ZM17.9453 28.2503C16.6859 28.0179 15.5208 27.5272 14.5068 26.8284L9.29381 32.0414C11.7004 34.0142 14.6823 35.3093 17.9453 35.6343V28.2503Z" fill="white"/>
<path fill-rule="evenodd" clip-rule="evenodd" d="M29.25 0H32.5V6.5L39 6.5V9.75H32.5V16.25H29.25V9.75H22.75V6.5L29.25 6.5V0Z" fill="white"/>
</svg>
