<svg width="41" height="40" viewBox="0 0 41 40" fill="none" xmlns="http://www.w3.org/2000/svg">
<path fill-rule="evenodd" clip-rule="evenodd" d="M0 6.5C0 4.70508 1.45507 3.25 3.25 3.25H9.75H29.25H35.75C37.5449 3.25 39 4.70507 39 6.5V32.5C39 34.2949 37.5449 35.75 35.75 35.75H29.25H9.75H3.25C1.45508 35.75 0 34.2949 0 32.5V6.5ZM3.25 32.5H8.125V26H3.25V32.5ZM27.625 32.5H11.375L11.375 6.5H27.625L27.625 32.5ZM30.875 32.5H35.75V26H30.875V32.5ZM30.875 22.75H35.75V16.25H30.875L30.875 22.75ZM30.875 13H35.75V6.5H30.875V13ZM3.25 6.5L8.125 6.5V13H3.25V6.5ZM3.25 16.25H8.125L8.125 22.75H3.25V16.25Z" fill="white"/>
</svg>
