<svg width="40" height="40" viewBox="0 0 40 40" fill="none" xmlns="http://www.w3.org/2000/svg">
<g clip-path="url(#clip0_448_1346)">
<path d="M20.001 0.000976562V3.63734C10.9627 3.63734 3.63734 10.9627 3.63734 20.001C3.63734 29.0383 10.9633 36.3646 20.001 36.3646C28.8764 36.3646 36.1024 29.2971 36.3576 20.4834L36.3646 20.001H40.001C40.001 31.046 31.046 40.001 20.001 40.001C8.9549 40.001 0.000976562 31.0465 0.000976562 20.001C0.000976562 9.12974 8.67242 0.28574 19.4766 0.00771664L20.001 0.000976562Z" fill="#1EB9C2"/>
<path d="M21.819 9.60596L21.8182 19.4581L26.6139 24.2553L24.0422 26.8263L18.1826 20.965V9.60596H21.819Z" fill="#1EB9C2"/>
</g>
<defs>
<clipPath id="clip0_448_1346">
<rect width="40" height="40" fill="white"/>
</clipPath>
</defs>
</svg>
